<svg width="44" height="49" viewBox="0 0 44 49" xmlns="http://www.w3.org/2000/svg">
    <path d="m23.984.522 5.18 2.95 5.181 2.95 7.77 4.425c1.136.646 1.897 1.921 1.885 3.241v20.715c.008 1.375-.827 2.68-2.026 3.312-4.819 2.739-9.635 5.48-14.453 8.221l-3.613 2.055c-1.227.708-2.824.653-4.013-.112-1.806-1.056-3.615-2.106-5.42-3.16-.09-.054-.182-.105-.274-.157l-.054-.03-.035-.02-.035-.02-.035-.021a5.227 5.227 0 0 1-.018-.01l-.034-.021c-.213-.129-.412-.275-.561-.48a.932.932 0 0 1 .437-.307l.027-.01.013-.005.028-.01a2.81 2.81 0 0 1 .013-.004l.041-.014.028-.01.027-.008.13-.04c.08-.026.158-.051.233-.082.492-.158.959-.378 1.417-.617l.08-.042.08-.043.081-.043.08-.043.12-.065.28-.153c.175-.12.389-.074.557.034.579.335 1.156.673 1.733 1.012l.577.339c.673.395 1.347.79 2.024 1.178l.29.167c.163.095.327.08.486.022l.02-.007.019-.008.019-.008.01-.004.019-.008.019-.01.019-.009.019-.01.019-.009.018-.01.019-.01.019-.01.027-.016.037-.02.027-.017.073-.043.053-.03.026-.015c1.97-1.123 3.941-2.244 5.912-3.365l3.943-2.242c2.628-1.494 5.257-2.99 7.883-4.487a.592.592 0 0 0 .322-.582c.005-6.833.001-13.668.002-20.501a.641.641 0 0 0-.378-.64c-6.003-3.408-12.002-6.821-18.003-10.23a.621.621 0 0 0-.707-.002l-5.144 2.925-5.143 2.925c-2.571 1.463-5.142 2.925-7.714 4.386a.634.634 0 0 0-.381.636v20.502a.58.58 0 0 0 .326.575c.915.523 1.831 1.044 2.747 1.565l1.374.782.687.39c.894.486 1.99.776 2.976.417l.03-.01c.878-.318 1.493-1.221 1.476-2.161.003-2.47.004-4.94.003-7.411v-3.706c-.001-3.088-.001-6.176.003-9.263-.021-.302.262-.551.553-.523l.33-.002c.66-.004 1.32-.006 1.98.004.32-.007.542.318.502.622v5.86l.001 4.394c.001 3.419 0 6.837-.006 10.255.002 1.822-.74 3.805-2.412 4.696-2.059 1.076-4.604.848-6.638-.184a55.02 55.02 0 0 1-2.629-1.435l-.208-.119-.207-.12-.447-.257a95.16 95.16 0 0 0-1.68-.95C.835 37.495.008 36.203 0 34.845V14.088c-.012-1.347.778-2.646 1.95-3.282l10.84-6.17L20.014.522c1.202-.694 2.768-.697 3.97 0zm9.06 15.397c1.835.985 2.852 3.053 2.885 5.073-.051.273-.339.423-.601.404h-.459l-.458.002c-.459.002-.917.002-1.375-.007-.203.008-.352-.105-.446-.26l-.009-.015a.737.737 0 0 1-.014-.025l-.008-.017a.85.85 0 0 1-.077-.25c-.22-.967-.75-1.924-1.669-2.39-1.113-.553-2.366-.647-3.601-.655H26.79l-.14.001-.232.002-.185.002-.135.007-.102.006-.068.004-.102.007-.034.002-.068.005-.069.005-.068.005-.069.006c-.902.077-1.812.246-2.563.762-.73.495-.951 1.495-.69 2.3.166.393.53.605.92.754l.035.013.017.007.035.012.034.013.018.006.034.012.052.017.052.017.052.017.051.016.169.052c1.042.27 2.104.443 3.171.591l.15.02.148.021.15.02.149.02.298.04.585.076.175.023.175.024.175.024.174.024.117.016.116.017.059.008.116.017.058.009.116.017.117.018.116.018.116.019c1.121.18 2.231.411 3.312.782l.056.02c1.288.44 2.549 1.298 2.99 2.636.577 1.792.324 3.934-.963 5.373-1.043 1.184-2.563 1.829-4.078 2.179-2.017.445-4.11.456-6.157.259-1.925-.218-3.93-.72-5.415-2.02-1.272-1.093-1.892-2.798-1.83-4.442.014-.278.293-.472.562-.449.769-.006 1.538-.008 2.308.001.307-.022.535.241.55.528.142.921.492 1.888 1.302 2.434 1.266.81 2.794.918 4.28.945l.11.002.11.002.22.003.38.004.162.002.054.001.45-.02.136-.005.092-.005.091-.004c1.267-.065 2.585-.216 3.59-1.023.638-.554.828-1.481.655-2.279-.144-.518-.598-.823-1.079-1.03l-.037-.016-.038-.016-.037-.015-.038-.015-.037-.014-.038-.014a5.785 5.785 0 0 0-.019-.007l-.037-.014-.037-.013-.037-.013-.037-.013-.037-.012c-1.347-.422-2.744-.597-4.145-.748l-.195-.02-.49-.052-.195-.02c-1.531-.165-3.056-.355-4.517-.863l-.093-.033c-1.26-.441-2.478-1.276-2.962-2.558-.675-1.815-.366-4.06 1.056-5.45 1.386-1.383 3.387-1.915 5.29-2.106 2.632-.168 5.451-.1 7.82 1.186z" fill="#ABC100" fill-rule="nonzero"/>
</svg>
