<svg width="60" height="54" viewBox="0 0 60 54" xmlns="http://www.w3.org/2000/svg">
    <g fill="#61DAFB" fill-rule="nonzero">
        <path d="M59.915 26.646c0-3.963-4.964-7.72-12.574-10.048C49.098 8.84 48.317 2.67 44.878.695c-.793-.463-1.72-.683-2.732-.683v2.72c.561 0 1.013.11 1.39.317 1.66.951 2.379 4.573 1.818 9.231a37.543 37.543 0 0 1-.622 3.586 59.1 59.1 0 0 0-7.744-1.33c-1.647-2.256-3.354-4.304-5.073-6.097 3.975-3.695 7.707-5.72 10.244-5.72V0c-3.354 0-7.744 2.39-12.183 6.537-4.44-4.122-8.83-6.488-12.183-6.488v2.72c2.524 0 6.268 2.011 10.244 5.682A57.6 57.6 0 0 0 23 14.537c-2.756.292-5.366.743-7.756 1.341a36.791 36.791 0 0 1-.634-3.537c-.573-4.658.134-8.28 1.78-9.243.366-.22.842-.318 1.403-.318V.061c-1.025 0-1.952.22-2.756.683C11.61 2.72 10.84 8.878 12.61 16.61 5.024 18.95.085 22.695.085 26.646c0 3.964 4.964 7.72 12.574 10.05-1.757 7.755-.976 13.926 2.463 15.902.793.463 1.72.682 2.744.682 3.354 0 7.744-2.39 12.183-6.536 4.439 4.122 8.829 6.488 12.183 6.488 1.024 0 1.95-.22 2.756-.683 3.427-1.976 4.195-8.134 2.427-15.866 7.56-2.33 12.5-6.085 12.5-10.037zm-15.878-8.134a54.925 54.925 0 0 1-1.647 4.817 57.714 57.714 0 0 0-1.597-2.927 65.985 65.985 0 0 0-1.756-2.853c1.731.256 3.402.573 5 .963zM38.45 31.5a64.969 64.969 0 0 1-2.939 4.659 63.454 63.454 0 0 1-5.512.243 68.09 68.09 0 0 1-5.488-.231c-1.012-1.451-2-3-2.951-4.634a63.523 63.523 0 0 1-2.537-4.854 63.594 63.594 0 0 1 2.525-4.866 64.969 64.969 0 0 1 2.939-4.658A63.454 63.454 0 0 1 30 16.915c1.841 0 3.683.085 5.488.231 1.012 1.452 2 3 2.951 4.634a63.523 63.523 0 0 1 2.537 4.854A68.281 68.281 0 0 1 38.45 31.5zm3.94-1.585a52.263 52.263 0 0 1 1.682 4.853c-1.597.39-3.28.72-5.024.976a67.371 67.371 0 0 0 1.756-2.89 69.27 69.27 0 0 0 1.585-2.94zM30.023 42.927a50.276 50.276 0 0 1-3.39-3.903c1.098.05 2.22.086 3.354.086 1.146 0 2.28-.025 3.39-.086a47.6 47.6 0 0 1-3.354 3.903zm-9.073-7.183a55.029 55.029 0 0 1-5-.964 54.925 54.925 0 0 1 1.647-4.817c.5.976 1.024 1.952 1.597 2.927a80.769 80.769 0 0 0 1.756 2.854zm9.012-25.378a50.276 50.276 0 0 1 3.39 3.902A75.493 75.493 0 0 0 30 14.183c-1.146 0-2.28.024-3.39.085a47.6 47.6 0 0 1 3.353-3.902zm-9.024 7.183a67.371 67.371 0 0 0-3.341 5.817 52.263 52.263 0 0 1-1.683-4.854 59.225 59.225 0 0 1 5.024-.963zM9.902 32.817c-4.317-1.841-7.11-4.256-7.11-6.17 0-1.915 2.793-4.342 7.11-6.171 1.05-.452 2.196-.854 3.378-1.232a58.571 58.571 0 0 0 2.744 7.427 57.746 57.746 0 0 0-2.707 7.39 37.046 37.046 0 0 1-3.415-1.244zm6.561 17.427c-1.658-.951-2.378-4.573-1.817-9.232.134-1.146.354-2.353.622-3.585a59.1 59.1 0 0 0 7.744 1.33c1.647 2.255 3.354 4.304 5.073 6.097-3.975 3.695-7.707 5.72-10.244 5.72-.548-.013-1.012-.123-1.378-.33zM45.39 40.95c.573 4.659-.134 8.28-1.78 9.244-.366.22-.842.317-1.403.317-2.524 0-6.268-2.012-10.244-5.683A57.6 57.6 0 0 0 37 38.744c2.756-.293 5.366-.744 7.756-1.342.28 1.232.5 2.415.634 3.55zm4.695-8.134c-1.048.451-2.195.854-3.378 1.232a58.571 58.571 0 0 0-2.744-7.427 57.746 57.746 0 0 0 2.708-7.39c1.207.378 2.353.792 3.427 1.244 4.317 1.841 7.11 4.256 7.11 6.17-.013 1.915-2.806 4.342-7.123 6.171z"/>
        <circle cx="29.988" cy="26.646" r="5.573"/>
    </g>
</svg>
